# xmcd
#
# Track frame offsets: 
#        150
#        19430
#        36313
#        59352
#        79863
#        104536
#        126377
#        147167
#        162353
#        187989
#
# Disc length: 2818 seconds
#
# Revision: 0
# Processed by: cddbd v1.5.2PL0 Copyright (c) Steve Scherf et al.
# Submitted via: ExactAudioCopy v1.0b3
#
DISCID=8e0b000a
DTITLE=Quang Linh, Van Khanh - Ve Hue
DYEAR=2000
DGENRE=
TTITLE0=Quang Linh - Ve Hue chieu Xuan
TTITLE1=Quang Linh - Chieu ngheng xe bong
TTITLE2=Van Khanh - Dong song ai da dat ten
TTITLE3=Quang Linh - Khi khong co Me
TTITLE4=Quang Linh - Chieu que
TTITLE5=Quang Linh - Co nhung chieu rat la
TTITLE6=Van Khanh - Ao hoa
TTITLE7=Quang Linh - Thon thuc tinh buon
TTITLE8=Quang Linh - Uoc muon
TTITLE9=Quang Linh - Vu vo tinh dau
EXTD=
EXTT0=
EXTT1=
EXTT2=
EXTT3=
EXTT4=
EXTT5=
EXTT6=
EXTT7=
EXTT8=
EXTT9=
PLAYORDER=
